<mxfile host="app.diagrams.net" modified="2023-11-28T17:06:02.735Z" agent="Mozilla/5.0 (Windows NT 10.0; Win64; x64) AppleWebKit/537.36 (KHTML, like Gecko) Chrome/119.0.0.0 Safari/537.36" version="22.1.4" etag="gVFHhyAs7s2hzZTZiGT1" type="device">
  <diagram id="YPiZvt-6MOI-oDIi41ov" name="Pagina-1">
    <mxGraphModel dx="2100" dy="1132" grid="1" gridSize="10" guides="1" tooltips="1" connect="1" arrows="1" fold="1" page="1" pageScale="1" pageWidth="1600" pageHeight="2200" math="0" shadow="0">
      <root>
        <mxCell id="0" />
        <mxCell id="1" parent="0" />
        <mxCell id="iZoaPTnGYf3c4O8fDg9j-1" value="&lt;font color=&quot;#0000ff&quot; style=&quot;font-size: 28px;&quot;&gt;CLIENT&lt;/font&gt;" style="rounded=1;whiteSpace=wrap;html=1;" vertex="1" parent="1">
          <mxGeometry x="730" y="40" width="160" height="70" as="geometry" />
        </mxCell>
        <mxCell id="iZoaPTnGYf3c4O8fDg9j-2" value="&lt;div style=&quot;&quot;&gt;&lt;span style=&quot;font-size: 15px; color: rgb(255, 153, 51); background-color: initial;&quot;&gt;Sprite:&lt;/span&gt;&lt;/div&gt;&lt;font style=&quot;&quot;&gt;&lt;div style=&quot;&quot;&gt;&lt;span style=&quot;font-size: 15px;&quot;&gt;&lt;br&gt;&lt;/span&gt;&lt;/div&gt;&lt;span style=&quot;font-size: 15px;&quot;&gt;&lt;div style=&quot;&quot;&gt;&lt;span style=&quot;background-color: initial;&quot;&gt;- texture: Texture2D&lt;/span&gt;&lt;/div&gt;&lt;/span&gt;&lt;span style=&quot;font-size: 15px;&quot;&gt;&lt;div style=&quot;&quot;&gt;&lt;span style=&quot;background-color: initial;&quot;&gt;- origin: Vector2&lt;/span&gt;&lt;/div&gt;&lt;div style=&quot;&quot;&gt;&lt;span style=&quot;background-color: initial;&quot;&gt;+ Position: Vector2&lt;/span&gt;&lt;/div&gt;&lt;div style=&quot;&quot;&gt;&lt;span style=&quot;background-color: initial;&quot;&gt;+ Rectangle: Rectangle&lt;/span&gt;&lt;/div&gt;&lt;div style=&quot;&quot;&gt;&lt;span style=&quot;background-color: initial;&quot;&gt;&lt;br&gt;&lt;/span&gt;&lt;/div&gt;&lt;/span&gt;&lt;div style=&quot;&quot;&gt;&lt;span style=&quot;background-color: initial; font-size: 15px;&quot;&gt;+ Sprite()&lt;/span&gt;&lt;br&gt;&lt;/div&gt;&lt;span style=&quot;font-size: 15px;&quot;&gt;&lt;div style=&quot;&quot;&gt;&lt;span style=&quot;background-color: initial;&quot;&gt;+ Draw()&lt;/span&gt;&lt;/div&gt;&lt;/span&gt;&lt;/font&gt;" style="rounded=0;whiteSpace=wrap;html=1;align=left;" vertex="1" parent="1">
          <mxGeometry x="1140" y="140" width="200" height="190" as="geometry" />
        </mxCell>
        <mxCell id="iZoaPTnGYf3c4O8fDg9j-3" value="" style="endArrow=none;html=1;rounded=0;" edge="1" parent="1">
          <mxGeometry width="50" height="50" relative="1" as="geometry">
            <mxPoint x="1140" y="270" as="sourcePoint" />
            <mxPoint x="1340" y="270" as="targetPoint" />
          </mxGeometry>
        </mxCell>
        <mxCell id="iZoaPTnGYf3c4O8fDg9j-4" value="&lt;div style=&quot;&quot;&gt;&lt;span style=&quot;font-size: 15px; color: rgb(255, 153, 51); background-color: initial;&quot;&gt;DragDropManager:&lt;/span&gt;&lt;/div&gt;&lt;font style=&quot;&quot;&gt;&lt;div style=&quot;&quot;&gt;&lt;span style=&quot;font-size: 15px;&quot;&gt;&lt;br&gt;&lt;/span&gt;&lt;/div&gt;&lt;span style=&quot;font-size: 15px;&quot;&gt;&lt;div style=&quot;&quot;&gt;&lt;span style=&quot;background-color: initial;&quot;&gt;- _draggables: List&amp;lt;IDraggable&amp;gt;&lt;/span&gt;&lt;/div&gt;&lt;/span&gt;&lt;span style=&quot;font-size: 15px;&quot;&gt;&lt;div style=&quot;&quot;&gt;&lt;span style=&quot;background-color: initial;&quot;&gt;+ letters: List&amp;lt;String&amp;gt;&lt;/span&gt;&lt;/div&gt;&lt;div style=&quot;&quot;&gt;&lt;div style=&quot;border-color: var(--border-color);&quot;&gt;- _targets: List&amp;lt;ITargetable&amp;gt;&lt;/div&gt;&lt;div style=&quot;border-color: var(--border-color);&quot;&gt;&lt;div style=&quot;border-color: var(--border-color);&quot;&gt;+ _cord_targ: List&amp;lt;Coordinate&amp;gt;&lt;/div&gt;&lt;div&gt;&lt;span style=&quot;border-color: var(--border-color); background-color: initial;&quot;&gt;- _dragItem: IDraggable&lt;/span&gt;&lt;/div&gt;&lt;/div&gt;&lt;div&gt;&lt;span style=&quot;border-color: var(--border-color); background-color: initial;&quot;&gt;+ indexItem: int&lt;/span&gt;&lt;/div&gt;&lt;/div&gt;&lt;div style=&quot;&quot;&gt;&lt;span style=&quot;background-color: initial;&quot;&gt;+ messaggio: string&lt;/span&gt;&lt;/div&gt;&lt;/span&gt;&lt;div style=&quot;&quot;&gt;&lt;br&gt;&lt;/div&gt;&lt;span style=&quot;font-size: 15px;&quot;&gt;&lt;div style=&quot;&quot;&gt;&lt;span style=&quot;background-color: initial;&quot;&gt;+ AddDraggable()&lt;/span&gt;&lt;/div&gt;&lt;/span&gt;&lt;span style=&quot;font-size: 15px;&quot;&gt;&lt;div style=&quot;&quot;&gt;&lt;span style=&quot;background-color: initial;&quot;&gt;+ AddTarget()&lt;/span&gt;&lt;/div&gt;&lt;/span&gt;&lt;span style=&quot;font-size: 15px;&quot;&gt;&lt;div style=&quot;&quot;&gt;&lt;span style=&quot;background-color: initial;&quot;&gt;+ Cleanup()&lt;/span&gt;&lt;/div&gt;&lt;/span&gt;&lt;span style=&quot;font-size: 15px;&quot;&gt;&lt;div style=&quot;&quot;&gt;&lt;span style=&quot;background-color: initial;&quot;&gt;+ CheckTarget()&lt;/span&gt;&lt;/div&gt;&lt;/span&gt;&lt;span style=&quot;font-size: 15px;&quot;&gt;&lt;div style=&quot;&quot;&gt;&lt;span style=&quot;background-color: initial;&quot;&gt;+ CheckDragStop()&lt;/span&gt;&lt;/div&gt;&lt;div style=&quot;&quot;&gt;&lt;div style=&quot;border-color: var(--border-color);&quot;&gt;+ Update()&lt;/div&gt;&lt;/div&gt;&lt;/span&gt;&lt;/font&gt;" style="rounded=0;whiteSpace=wrap;html=1;align=left;" vertex="1" parent="1">
          <mxGeometry x="30" y="390" width="240" height="310" as="geometry" />
        </mxCell>
        <mxCell id="iZoaPTnGYf3c4O8fDg9j-5" value="" style="endArrow=none;html=1;rounded=0;" edge="1" parent="1">
          <mxGeometry width="50" height="50" relative="1" as="geometry">
            <mxPoint x="30" y="570" as="sourcePoint" />
            <mxPoint x="270" y="570" as="targetPoint" />
          </mxGeometry>
        </mxCell>
        <mxCell id="iZoaPTnGYf3c4O8fDg9j-6" value="&lt;div style=&quot;&quot;&gt;&lt;span style=&quot;font-size: 15px; color: rgb(255, 153, 51); background-color: initial;&quot;&gt;IDraggable:&lt;/span&gt;&lt;/div&gt;&lt;font style=&quot;&quot;&gt;&lt;div style=&quot;&quot;&gt;&lt;span style=&quot;font-size: 15px;&quot;&gt;&lt;br&gt;&lt;/span&gt;&lt;/div&gt;&lt;span style=&quot;font-size: 15px;&quot;&gt;&lt;div style=&quot;&quot;&gt;&lt;span style=&quot;background-color: initial;&quot;&gt;- Rectangle: Rectangle&lt;/span&gt;&lt;/div&gt;&lt;/span&gt;&lt;span style=&quot;font-size: 15px;&quot;&gt;&lt;div style=&quot;&quot;&gt;&lt;span style=&quot;background-color: initial;&quot;&gt;- Position: Vector2&lt;/span&gt;&lt;/div&gt;&lt;/span&gt;&lt;div style=&quot;&quot;&gt;&lt;br&gt;&lt;/div&gt;&lt;span style=&quot;font-size: 15px;&quot;&gt;&lt;div style=&quot;&quot;&gt;&lt;span style=&quot;background-color: initial;&quot;&gt;+ RegisterDraggable()&lt;/span&gt;&lt;/div&gt;&lt;/span&gt;&lt;/font&gt;" style="rounded=0;whiteSpace=wrap;html=1;align=left;" vertex="1" parent="1">
          <mxGeometry x="30" y="190" width="200" height="130" as="geometry" />
        </mxCell>
        <mxCell id="iZoaPTnGYf3c4O8fDg9j-7" value="" style="endArrow=none;html=1;rounded=0;" edge="1" parent="1">
          <mxGeometry width="50" height="50" relative="1" as="geometry">
            <mxPoint x="30" y="280" as="sourcePoint" />
            <mxPoint x="230" y="280" as="targetPoint" />
          </mxGeometry>
        </mxCell>
        <mxCell id="iZoaPTnGYf3c4O8fDg9j-8" value="&lt;div style=&quot;&quot;&gt;&lt;span style=&quot;font-size: 15px; color: rgb(255, 153, 51); background-color: initial;&quot;&gt;connectionManager:&lt;/span&gt;&lt;/div&gt;&lt;font style=&quot;&quot;&gt;&lt;div style=&quot;&quot;&gt;&lt;span style=&quot;font-size: 15px;&quot;&gt;&lt;br&gt;&lt;/span&gt;&lt;/div&gt;&lt;span style=&quot;font-size: 15px;&quot;&gt;&lt;div style=&quot;&quot;&gt;&lt;span style=&quot;background-color: initial;&quot;&gt;- tcpClient: TcpClient&lt;/span&gt;&lt;/div&gt;&lt;/span&gt;&lt;span style=&quot;font-size: 15px;&quot;&gt;&lt;div style=&quot;&quot;&gt;&lt;span style=&quot;background-color: initial;&quot;&gt;- stream: NetworkStream&lt;/span&gt;&lt;/div&gt;&lt;/span&gt;&lt;div style=&quot;&quot;&gt;&lt;br&gt;&lt;/div&gt;&lt;span style=&quot;font-size: 15px;&quot;&gt;&lt;div style=&quot;&quot;&gt;&lt;span style=&quot;background-color: initial;&quot;&gt;+ ConnectionManager()&lt;/span&gt;&lt;/div&gt;&lt;/span&gt;&lt;span style=&quot;font-size: 15px;&quot;&gt;&lt;div style=&quot;&quot;&gt;&lt;span style=&quot;background-color: initial;&quot;&gt;+ Connect()&lt;/span&gt;&lt;/div&gt;&lt;/span&gt;&lt;span style=&quot;font-size: 15px;&quot;&gt;&lt;div style=&quot;&quot;&gt;&lt;span style=&quot;background-color: initial;&quot;&gt;+ SendMessage()&lt;/span&gt;&lt;/div&gt;&lt;/span&gt;&lt;span style=&quot;font-size: 15px;&quot;&gt;&lt;div style=&quot;&quot;&gt;&lt;span style=&quot;background-color: initial;&quot;&gt;+ ReceiveMessage()&lt;/span&gt;&lt;/div&gt;&lt;/span&gt;&lt;span style=&quot;font-size: 15px;&quot;&gt;&lt;div style=&quot;&quot;&gt;&lt;span style=&quot;background-color: initial;&quot;&gt;+ CloseConnection()&lt;/span&gt;&lt;/div&gt;&lt;/span&gt;&lt;/font&gt;" style="rounded=0;whiteSpace=wrap;html=1;align=left;" vertex="1" parent="1">
          <mxGeometry x="800" y="160" width="200" height="210" as="geometry" />
        </mxCell>
        <mxCell id="iZoaPTnGYf3c4O8fDg9j-9" value="" style="endArrow=none;html=1;rounded=0;" edge="1" parent="1">
          <mxGeometry width="50" height="50" relative="1" as="geometry">
            <mxPoint x="800" y="260" as="sourcePoint" />
            <mxPoint x="1000" y="260" as="targetPoint" />
          </mxGeometry>
        </mxCell>
        <mxCell id="iZoaPTnGYf3c4O8fDg9j-10" value="&lt;div style=&quot;&quot;&gt;&lt;span style=&quot;font-size: 15px; color: rgb(255, 153, 51); background-color: initial;&quot;&gt;ITargetable:&lt;/span&gt;&lt;/div&gt;&lt;font style=&quot;&quot;&gt;&lt;div style=&quot;&quot;&gt;&lt;span style=&quot;font-size: 15px;&quot;&gt;&lt;br&gt;&lt;/span&gt;&lt;/div&gt;&lt;span style=&quot;font-size: 15px;&quot;&gt;&lt;div style=&quot;&quot;&gt;&lt;span style=&quot;background-color: initial;&quot;&gt;- Rectangle: Rectangle&lt;/span&gt;&lt;/div&gt;&lt;/span&gt;&lt;span style=&quot;font-size: 15px;&quot;&gt;&lt;div style=&quot;&quot;&gt;&lt;span style=&quot;background-color: initial;&quot;&gt;- Position: Vector2&lt;/span&gt;&lt;/div&gt;&lt;/span&gt;&lt;div style=&quot;&quot;&gt;&lt;br&gt;&lt;/div&gt;&lt;span style=&quot;font-size: 15px;&quot;&gt;&lt;div style=&quot;&quot;&gt;&lt;span style=&quot;background-color: initial;&quot;&gt;+ RegisterTargetable()&lt;/span&gt;&lt;/div&gt;&lt;/span&gt;&lt;/font&gt;" style="rounded=0;whiteSpace=wrap;html=1;align=left;" vertex="1" parent="1">
          <mxGeometry x="250" y="190" width="200" height="130" as="geometry" />
        </mxCell>
        <mxCell id="iZoaPTnGYf3c4O8fDg9j-11" value="" style="endArrow=none;html=1;rounded=0;" edge="1" parent="1">
          <mxGeometry width="50" height="50" relative="1" as="geometry">
            <mxPoint x="250" y="280" as="sourcePoint" />
            <mxPoint x="450" y="280" as="targetPoint" />
          </mxGeometry>
        </mxCell>
        <mxCell id="iZoaPTnGYf3c4O8fDg9j-12" value="" style="endArrow=classic;html=1;rounded=0;" edge="1" parent="1">
          <mxGeometry width="50" height="50" relative="1" as="geometry">
            <mxPoint x="129.5" y="320" as="sourcePoint" />
            <mxPoint x="130" y="380" as="targetPoint" />
          </mxGeometry>
        </mxCell>
        <mxCell id="iZoaPTnGYf3c4O8fDg9j-13" value="&lt;div style=&quot;&quot;&gt;&lt;span style=&quot;font-size: 15px; color: rgb(255, 153, 51); background-color: initial;&quot;&gt;Button:&lt;/span&gt;&lt;/div&gt;&lt;font style=&quot;&quot;&gt;&lt;div style=&quot;&quot;&gt;&lt;span style=&quot;font-size: 15px;&quot;&gt;&lt;br&gt;&lt;/span&gt;&lt;/div&gt;&lt;span style=&quot;font-size: 15px;&quot;&gt;&lt;div style=&quot;&quot;&gt;&lt;span style=&quot;background-color: initial;&quot;&gt;- _texture: Texture2D&lt;/span&gt;&lt;/div&gt;&lt;/span&gt;&lt;span style=&quot;font-size: 15px;&quot;&gt;&lt;div style=&quot;&quot;&gt;&lt;span style=&quot;background-color: initial;&quot;&gt;- _position: Vector2&lt;/span&gt;&lt;/div&gt;&lt;div style=&quot;&quot;&gt;&lt;span style=&quot;background-color: initial;&quot;&gt;- _rect: Rectangle&lt;/span&gt;&lt;/div&gt;&lt;div style=&quot;&quot;&gt;&lt;span style=&quot;background-color: initial;&quot;&gt;- _shade: Color&lt;/span&gt;&lt;/div&gt;&lt;/span&gt;&lt;div style=&quot;&quot;&gt;&lt;br&gt;&lt;/div&gt;&lt;span style=&quot;font-size: 15px;&quot;&gt;&lt;div style=&quot;&quot;&gt;&lt;span style=&quot;background-color: initial;&quot;&gt;+ Button()&lt;/span&gt;&lt;/div&gt;&lt;div style=&quot;&quot;&gt;&lt;span style=&quot;background-color: initial;&quot;&gt;+ Update()&lt;/span&gt;&lt;/div&gt;&lt;div style=&quot;&quot;&gt;&lt;span style=&quot;background-color: initial;&quot;&gt;+ Click()&lt;/span&gt;&lt;/div&gt;&lt;div style=&quot;&quot;&gt;&lt;span style=&quot;background-color: initial;&quot;&gt;+ Draw()&lt;/span&gt;&lt;/div&gt;&lt;/span&gt;&lt;/font&gt;" style="rounded=0;whiteSpace=wrap;html=1;align=left;" vertex="1" parent="1">
          <mxGeometry x="1370" y="140" width="200" height="220" as="geometry" />
        </mxCell>
        <mxCell id="iZoaPTnGYf3c4O8fDg9j-14" value="" style="endArrow=none;html=1;rounded=0;" edge="1" parent="1">
          <mxGeometry width="50" height="50" relative="1" as="geometry">
            <mxPoint x="1370" y="270" as="sourcePoint" />
            <mxPoint x="1570" y="270" as="targetPoint" />
          </mxGeometry>
        </mxCell>
        <mxCell id="iZoaPTnGYf3c4O8fDg9j-15" value="&lt;div style=&quot;&quot;&gt;&lt;span style=&quot;font-size: 15px; color: rgb(255, 153, 51); background-color: initial;&quot;&gt;Casella:&lt;/span&gt;&lt;/div&gt;&lt;font style=&quot;&quot;&gt;&lt;div style=&quot;&quot;&gt;&lt;span style=&quot;font-size: 15px;&quot;&gt;&lt;br&gt;&lt;/span&gt;&lt;/div&gt;&lt;span style=&quot;font-size: 15px;&quot;&gt;&lt;div style=&quot;&quot;&gt;&lt;span style=&quot;background-color: initial;&quot;&gt;- cor: Coordinate&lt;/span&gt;&lt;/div&gt;&lt;/span&gt;&lt;span style=&quot;font-size: 15px;&quot;&gt;&lt;div style=&quot;&quot;&gt;&lt;br&gt;&lt;/div&gt;&lt;/span&gt;&lt;span style=&quot;font-size: 15px;&quot;&gt;&lt;div style=&quot;&quot;&gt;&lt;span style=&quot;background-color: initial;&quot;&gt;+ Casella()&lt;/span&gt;&lt;/div&gt;&lt;/span&gt;&lt;/font&gt;" style="rounded=0;whiteSpace=wrap;html=1;align=left;" vertex="1" parent="1">
          <mxGeometry x="630" y="470" width="200" height="120" as="geometry" />
        </mxCell>
        <mxCell id="iZoaPTnGYf3c4O8fDg9j-16" value="&lt;div style=&quot;&quot;&gt;&lt;span style=&quot;font-size: 15px; color: rgb(255, 153, 51); background-color: initial;&quot;&gt;Lettera:&lt;/span&gt;&lt;/div&gt;&lt;font style=&quot;&quot;&gt;&lt;div style=&quot;&quot;&gt;&lt;span style=&quot;font-size: 15px;&quot;&gt;&lt;br&gt;&lt;/span&gt;&lt;/div&gt;&lt;span style=&quot;font-size: 15px;&quot;&gt;&lt;div style=&quot;&quot;&gt;&lt;span style=&quot;background-color: initial;&quot;&gt;- lettera: String&lt;/span&gt;&lt;/div&gt;&lt;/span&gt;&lt;span style=&quot;font-size: 15px;&quot;&gt;&lt;div style=&quot;&quot;&gt;&lt;br&gt;&lt;/div&gt;&lt;/span&gt;&lt;span style=&quot;font-size: 15px;&quot;&gt;&lt;div style=&quot;&quot;&gt;&lt;span style=&quot;background-color: initial;&quot;&gt;+ Lettera()&lt;/span&gt;&lt;/div&gt;&lt;/span&gt;&lt;/font&gt;" style="rounded=0;whiteSpace=wrap;html=1;align=left;" vertex="1" parent="1">
          <mxGeometry x="840" y="470" width="200" height="120" as="geometry" />
        </mxCell>
        <mxCell id="iZoaPTnGYf3c4O8fDg9j-17" value="" style="endArrow=none;html=1;rounded=0;" edge="1" parent="1">
          <mxGeometry width="50" height="50" relative="1" as="geometry">
            <mxPoint x="630" y="550" as="sourcePoint" />
            <mxPoint x="830" y="550" as="targetPoint" />
          </mxGeometry>
        </mxCell>
        <mxCell id="iZoaPTnGYf3c4O8fDg9j-18" value="&lt;div style=&quot;&quot;&gt;&lt;span style=&quot;font-size: 15px; color: rgb(255, 153, 51); background-color: initial;&quot;&gt;GameManager:&lt;/span&gt;&lt;/div&gt;&lt;font style=&quot;&quot;&gt;&lt;div style=&quot;&quot;&gt;&lt;span style=&quot;font-size: 15px;&quot;&gt;&lt;br&gt;&lt;/span&gt;&lt;/div&gt;&lt;span style=&quot;font-size: 15px;&quot;&gt;&lt;div style=&quot;&quot;&gt;&lt;span style=&quot;background-color: initial;&quot;&gt;+ letters: List&amp;lt;Lettera&amp;gt;&lt;/span&gt;&lt;/div&gt;&lt;/span&gt;&lt;span style=&quot;font-size: 15px;&quot;&gt;&lt;div style=&quot;&quot;&gt;&lt;span style=&quot;background-color: initial;&quot;&gt;+ casels: List&amp;lt;Casella&amp;gt;&lt;/span&gt;&lt;/div&gt;&lt;div style=&quot;&quot;&gt;&lt;div style=&quot;border-color: var(--border-color);&quot;&gt;- _ui: UIManager&lt;/div&gt;&lt;div style=&quot;border-color: var(--border-color);&quot;&gt;&lt;div style=&quot;border-color: var(--border-color);&quot;&gt;&lt;br&gt;&lt;/div&gt;&lt;/div&gt;&lt;/div&gt;&lt;/span&gt;&lt;div style=&quot;&quot;&gt;&lt;br&gt;&lt;/div&gt;&lt;span style=&quot;font-size: 15px;&quot;&gt;&lt;div style=&quot;&quot;&gt;&lt;span style=&quot;background-color: initial;&quot;&gt;+ GameManager()&lt;/span&gt;&lt;/div&gt;&lt;/span&gt;&lt;span style=&quot;font-size: 15px;&quot;&gt;&lt;div style=&quot;&quot;&gt;&lt;span style=&quot;background-color: initial;&quot;&gt;+ Update()&lt;/span&gt;&lt;/div&gt;&lt;/span&gt;&lt;span style=&quot;font-size: 15px;&quot;&gt;&lt;div style=&quot;&quot;&gt;&lt;span style=&quot;background-color: initial;&quot;&gt;+ aggiornaMessaggio()&lt;/span&gt;&lt;/div&gt;&lt;/span&gt;&lt;span style=&quot;font-size: 15px;&quot;&gt;&lt;div style=&quot;&quot;&gt;&lt;span style=&quot;background-color: initial;&quot;&gt;+ Draw()&lt;/span&gt;&lt;/div&gt;&lt;/span&gt;&lt;span style=&quot;font-size: 15px;&quot;&gt;&lt;div style=&quot;&quot;&gt;&lt;span style=&quot;background-color: initial;&quot;&gt;+ cleanUp()&lt;/span&gt;&lt;/div&gt;&lt;/span&gt;&lt;/font&gt;" style="rounded=0;whiteSpace=wrap;html=1;align=left;" vertex="1" parent="1">
          <mxGeometry x="630" y="640" width="240" height="240" as="geometry" />
        </mxCell>
        <mxCell id="iZoaPTnGYf3c4O8fDg9j-19" value="" style="endArrow=none;html=1;rounded=0;" edge="1" parent="1">
          <mxGeometry width="50" height="50" relative="1" as="geometry">
            <mxPoint x="630" y="759.5" as="sourcePoint" />
            <mxPoint x="870" y="759.5" as="targetPoint" />
          </mxGeometry>
        </mxCell>
        <mxCell id="iZoaPTnGYf3c4O8fDg9j-20" value="&lt;div style=&quot;&quot;&gt;&lt;span style=&quot;font-size: 15px; color: rgb(255, 153, 51); background-color: initial;&quot;&gt;InputManager:&lt;/span&gt;&lt;/div&gt;&lt;font style=&quot;&quot;&gt;&lt;div style=&quot;&quot;&gt;&lt;span style=&quot;font-size: 15px;&quot;&gt;&lt;br&gt;&lt;/span&gt;&lt;/div&gt;&lt;span style=&quot;font-size: 15px;&quot;&gt;&lt;div style=&quot;&quot;&gt;&lt;span style=&quot;background-color: initial;&quot;&gt;- _lastMouseState: MouseState&lt;/span&gt;&lt;/div&gt;&lt;/span&gt;&lt;span style=&quot;font-size: 15px;&quot;&gt;&lt;div style=&quot;&quot;&gt;&lt;span style=&quot;background-color: initial;&quot;&gt;+ MousePosition: Vector2&lt;/span&gt;&lt;/div&gt;&lt;div style=&quot;&quot;&gt;&lt;div style=&quot;border-color: var(--border-color);&quot;&gt;+ MouseClicked: bool&lt;/div&gt;&lt;div style=&quot;border-color: var(--border-color);&quot;&gt;&lt;div style=&quot;border-color: var(--border-color);&quot;&gt;+ MouseReleased: bool&lt;/div&gt;&lt;div style=&quot;border-color: var(--border-color);&quot;&gt;&lt;div style=&quot;border-color: var(--border-color);&quot;&gt;&lt;br&gt;&lt;/div&gt;&lt;/div&gt;&lt;/div&gt;&lt;/div&gt;&lt;/span&gt;&lt;span style=&quot;font-size: 15px;&quot;&gt;&lt;div style=&quot;&quot;&gt;&lt;span style=&quot;background-color: initial;&quot;&gt;+ Update()&lt;/span&gt;&lt;/div&gt;&lt;/span&gt;&lt;/font&gt;" style="rounded=0;whiteSpace=wrap;html=1;align=left;" vertex="1" parent="1">
          <mxGeometry x="30" y="780" width="240" height="170" as="geometry" />
        </mxCell>
        <mxCell id="iZoaPTnGYf3c4O8fDg9j-21" value="" style="endArrow=none;html=1;rounded=0;" edge="1" parent="1">
          <mxGeometry width="50" height="50" relative="1" as="geometry">
            <mxPoint x="30" y="910" as="sourcePoint" />
            <mxPoint x="270" y="910" as="targetPoint" />
          </mxGeometry>
        </mxCell>
        <mxCell id="iZoaPTnGYf3c4O8fDg9j-22" value="&lt;div style=&quot;&quot;&gt;&lt;span style=&quot;font-size: 15px; color: rgb(255, 153, 51); background-color: initial;&quot;&gt;UIManager:&lt;/span&gt;&lt;/div&gt;&lt;font style=&quot;&quot;&gt;&lt;div style=&quot;&quot;&gt;&lt;span style=&quot;font-size: 15px;&quot;&gt;&lt;br&gt;&lt;/span&gt;&lt;/div&gt;&lt;span style=&quot;font-size: 15px;&quot;&gt;&lt;div style=&quot;&quot;&gt;&lt;span style=&quot;background-color: initial;&quot;&gt;- ButtonTexture: Texture2D&lt;/span&gt;&lt;/div&gt;&lt;/span&gt;&lt;span style=&quot;font-size: 15px;&quot;&gt;&lt;div style=&quot;&quot;&gt;&lt;span style=&quot;background-color: initial;&quot;&gt;- Font: SpriteFont&lt;/span&gt;&lt;/div&gt;&lt;div style=&quot;&quot;&gt;&lt;div style=&quot;border-color: var(--border-color);&quot;&gt;- _buttons: List&amp;lt;Button&amp;gt;&lt;/div&gt;&lt;div style=&quot;border-color: var(--border-color);&quot;&gt;&lt;div style=&quot;border-color: var(--border-color);&quot;&gt;&lt;br&gt;&lt;/div&gt;&lt;/div&gt;&lt;/div&gt;&lt;/span&gt;&lt;div style=&quot;&quot;&gt;&lt;br&gt;&lt;/div&gt;&lt;span style=&quot;font-size: 15px;&quot;&gt;&lt;div style=&quot;&quot;&gt;&lt;span style=&quot;background-color: initial;&quot;&gt;+ UIManager()&lt;/span&gt;&lt;/div&gt;&lt;/span&gt;&lt;span style=&quot;font-size: 15px;&quot;&gt;&lt;div style=&quot;&quot;&gt;&lt;span style=&quot;background-color: initial;&quot;&gt;+ AddButton()&lt;/span&gt;&lt;/div&gt;&lt;/span&gt;&lt;span style=&quot;font-size: 15px;&quot;&gt;&lt;div style=&quot;&quot;&gt;&lt;span style=&quot;background-color: initial;&quot;&gt;+ Update()&lt;/span&gt;&lt;/div&gt;&lt;/span&gt;&lt;span style=&quot;font-size: 15px;&quot;&gt;&lt;div style=&quot;&quot;&gt;&lt;span style=&quot;background-color: initial;&quot;&gt;+ Draw()&lt;/span&gt;&lt;/div&gt;&lt;/span&gt;&lt;/font&gt;" style="rounded=0;whiteSpace=wrap;html=1;align=left;" vertex="1" parent="1">
          <mxGeometry x="950" y="630" width="240" height="240" as="geometry" />
        </mxCell>
        <mxCell id="iZoaPTnGYf3c4O8fDg9j-23" value="" style="endArrow=none;html=1;rounded=0;" edge="1" parent="1">
          <mxGeometry width="50" height="50" relative="1" as="geometry">
            <mxPoint x="950" y="760" as="sourcePoint" />
            <mxPoint x="1190" y="760" as="targetPoint" />
          </mxGeometry>
        </mxCell>
        <mxCell id="iZoaPTnGYf3c4O8fDg9j-24" value="&lt;div style=&quot;&quot;&gt;&lt;span style=&quot;font-size: 15px; color: rgb(255, 153, 51); background-color: initial;&quot;&gt;Coordinate:&lt;/span&gt;&lt;/div&gt;&lt;font style=&quot;&quot;&gt;&lt;div style=&quot;&quot;&gt;&lt;span style=&quot;font-size: 15px;&quot;&gt;&lt;br&gt;&lt;/span&gt;&lt;/div&gt;&lt;span style=&quot;font-size: 15px;&quot;&gt;&lt;div style=&quot;&quot;&gt;&lt;span style=&quot;background-color: initial;&quot;&gt;+ x: int&lt;/span&gt;&lt;/div&gt;&lt;/span&gt;&lt;span style=&quot;font-size: 15px;&quot;&gt;&lt;div style=&quot;&quot;&gt;&lt;span style=&quot;background-color: initial;&quot;&gt;+ y: int&lt;/span&gt;&lt;/div&gt;&lt;div style=&quot;&quot;&gt;&lt;div style=&quot;border-color: var(--border-color);&quot;&gt;&lt;br&gt;&lt;/div&gt;&lt;/div&gt;&lt;/span&gt;&lt;span style=&quot;font-size: 15px;&quot;&gt;&lt;div style=&quot;&quot;&gt;&lt;span style=&quot;background-color: initial;&quot;&gt;+ Coordinate()&lt;/span&gt;&lt;/div&gt;&lt;/span&gt;&lt;/font&gt;" style="rounded=0;whiteSpace=wrap;html=1;align=left;" vertex="1" parent="1">
          <mxGeometry x="510" y="190" width="230" height="130" as="geometry" />
        </mxCell>
        <mxCell id="iZoaPTnGYf3c4O8fDg9j-25" value="" style="endArrow=none;html=1;rounded=0;" edge="1" parent="1">
          <mxGeometry width="50" height="50" relative="1" as="geometry">
            <mxPoint x="510" y="284" as="sourcePoint" />
            <mxPoint x="740" y="284" as="targetPoint" />
          </mxGeometry>
        </mxCell>
        <mxCell id="iZoaPTnGYf3c4O8fDg9j-26" value="&lt;div style=&quot;&quot;&gt;&lt;font color=&quot;#ff9933&quot;&gt;&lt;span style=&quot;font-size: 15px;&quot;&gt;Globals:&lt;/span&gt;&lt;/font&gt;&lt;/div&gt;&lt;div style=&quot;&quot;&gt;&lt;font color=&quot;#ff9933&quot;&gt;&lt;span style=&quot;font-size: 15px;&quot;&gt;&lt;br&gt;&lt;/span&gt;&lt;/font&gt;&lt;/div&gt;&lt;font style=&quot;&quot;&gt;&lt;span style=&quot;font-size: 15px;&quot;&gt;&lt;div style=&quot;&quot;&gt;&lt;span style=&quot;background-color: initial;&quot;&gt;+ TotalSeconds: float&lt;/span&gt;&lt;/div&gt;&lt;/span&gt;&lt;span style=&quot;font-size: 15px;&quot;&gt;&lt;div style=&quot;&quot;&gt;&lt;span style=&quot;background-color: initial;&quot;&gt;+ Content: ContentManager&lt;/span&gt;&lt;/div&gt;&lt;div style=&quot;&quot;&gt;&lt;div style=&quot;border-color: var(--border-color);&quot;&gt;+ SpriteBatch: SpriteBatch&lt;/div&gt;&lt;div style=&quot;border-color: var(--border-color);&quot;&gt;&lt;div style=&quot;border-color: var(--border-color);&quot;&gt;+ MouseState: MouseState&lt;/div&gt;&lt;div&gt;&lt;span style=&quot;border-color: var(--border-color); background-color: initial;&quot;&gt;+ LastMousestate: MouseState&lt;/span&gt;&lt;/div&gt;&lt;/div&gt;&lt;div&gt;&lt;span style=&quot;border-color: var(--border-color); background-color: initial;&quot;&gt;+ Clicked: bool&lt;/span&gt;&lt;/div&gt;&lt;/div&gt;&lt;div style=&quot;&quot;&gt;&lt;span style=&quot;background-color: initial;&quot;&gt;+ MouseCursor: Rectangle&lt;/span&gt;&lt;/div&gt;&lt;/span&gt;&lt;div style=&quot;&quot;&gt;&lt;br&gt;&lt;/div&gt;&lt;span style=&quot;font-size: 15px;&quot;&gt;&lt;div style=&quot;&quot;&gt;&lt;span style=&quot;background-color: initial;&quot;&gt;+ Update()&lt;/span&gt;&lt;br&gt;&lt;/div&gt;&lt;/span&gt;&lt;/font&gt;" style="rounded=0;whiteSpace=wrap;html=1;align=left;" vertex="1" parent="1">
          <mxGeometry x="1280" y="390" width="240" height="220" as="geometry" />
        </mxCell>
        <mxCell id="iZoaPTnGYf3c4O8fDg9j-27" value="" style="endArrow=none;html=1;rounded=0;" edge="1" parent="1">
          <mxGeometry width="50" height="50" relative="1" as="geometry">
            <mxPoint x="1280" y="570" as="sourcePoint" />
            <mxPoint x="1520" y="570" as="targetPoint" />
          </mxGeometry>
        </mxCell>
        <mxCell id="iZoaPTnGYf3c4O8fDg9j-28" value="&lt;div style=&quot;&quot;&gt;&lt;span style=&quot;font-size: 15px; color: rgb(255, 153, 51); background-color: initial;&quot;&gt;Game1:&lt;/span&gt;&lt;/div&gt;&lt;font style=&quot;&quot;&gt;&lt;div style=&quot;&quot;&gt;&lt;span style=&quot;font-size: 15px;&quot;&gt;&lt;br&gt;&lt;/span&gt;&lt;/div&gt;&lt;span style=&quot;font-size: 15px;&quot;&gt;&lt;div style=&quot;&quot;&gt;&lt;span style=&quot;background-color: initial;&quot;&gt;- _graphics: GraphicsDeviceManager&lt;/span&gt;&lt;/div&gt;&lt;/span&gt;&lt;span style=&quot;font-size: 15px;&quot;&gt;&lt;div style=&quot;&quot;&gt;&lt;span style=&quot;background-color: initial;&quot;&gt;- _spriteBatch: SpriteBatch&lt;/span&gt;&lt;/div&gt;&lt;div style=&quot;&quot;&gt;&lt;div style=&quot;border-color: var(--border-color);&quot;&gt;+ _gameManager: GameManager&lt;/div&gt;&lt;div style=&quot;border-color: var(--border-color);&quot;&gt;&lt;div style=&quot;border-color: var(--border-color);&quot;&gt;+ connectionManager: connectionManager&lt;/div&gt;&lt;div&gt;&lt;span style=&quot;border-color: var(--border-color); background-color: initial;&quot;&gt;-&amp;nbsp; nomeGiocatore: String&lt;/span&gt;&lt;/div&gt;&lt;/div&gt;&lt;div&gt;&lt;span style=&quot;border-color: var(--border-color); background-color: initial;&quot;&gt;+ cords: List&amp;lt;Coordinate&amp;gt;&lt;/span&gt;&lt;/div&gt;&lt;/div&gt;&lt;div style=&quot;&quot;&gt;&lt;span style=&quot;background-color: initial;&quot;&gt;+ letters: List&amp;lt;string&amp;gt;&lt;/span&gt;&lt;/div&gt;&lt;/span&gt;&lt;div style=&quot;&quot;&gt;&lt;br&gt;&lt;/div&gt;&lt;span style=&quot;font-size: 15px;&quot;&gt;&lt;div style=&quot;&quot;&gt;&lt;span style=&quot;background-color: initial;&quot;&gt;+ IsLettera()&lt;/span&gt;&lt;/div&gt;&lt;/span&gt;&lt;span style=&quot;font-size: 15px;&quot;&gt;&lt;div style=&quot;&quot;&gt;&lt;span style=&quot;background-color: initial;&quot;&gt;+ Game1()&lt;/span&gt;&lt;/div&gt;&lt;/span&gt;&lt;span style=&quot;font-size: 15px;&quot;&gt;&lt;div style=&quot;&quot;&gt;&lt;span style=&quot;background-color: initial;&quot;&gt;- Initialize()&lt;/span&gt;&lt;/div&gt;&lt;/span&gt;&lt;span style=&quot;font-size: 15px;&quot;&gt;&lt;div style=&quot;&quot;&gt;&lt;span style=&quot;background-color: initial;&quot;&gt;- LoadContent()&lt;/span&gt;&lt;/div&gt;&lt;/span&gt;&lt;span style=&quot;font-size: 15px;&quot;&gt;&lt;div style=&quot;&quot;&gt;&lt;span style=&quot;background-color: initial;&quot;&gt;- Update()&lt;/span&gt;&lt;/div&gt;&lt;div style=&quot;&quot;&gt;&lt;span style=&quot;background-color: initial;&quot;&gt;- Draw()&lt;/span&gt;&lt;/div&gt;&lt;div style=&quot;&quot;&gt;&lt;div style=&quot;border-color: var(--border-color);&quot;&gt;+ aggiornaGioco()&lt;/div&gt;&lt;/div&gt;&lt;/span&gt;&lt;/font&gt;" style="rounded=0;whiteSpace=wrap;html=1;align=left;" vertex="1" parent="1">
          <mxGeometry x="300" y="470" width="290" height="340" as="geometry" />
        </mxCell>
        <mxCell id="iZoaPTnGYf3c4O8fDg9j-29" value="" style="endArrow=none;html=1;rounded=0;" edge="1" parent="1">
          <mxGeometry width="50" height="50" relative="1" as="geometry">
            <mxPoint x="300" y="660" as="sourcePoint" />
            <mxPoint x="590" y="660" as="targetPoint" />
          </mxGeometry>
        </mxCell>
        <mxCell id="iZoaPTnGYf3c4O8fDg9j-30" value="" style="endArrow=classic;html=1;rounded=0;" edge="1" parent="1">
          <mxGeometry width="50" height="50" relative="1" as="geometry">
            <mxPoint x="260" y="320" as="sourcePoint" />
            <mxPoint x="260.5" y="380" as="targetPoint" />
          </mxGeometry>
        </mxCell>
        <mxCell id="iZoaPTnGYf3c4O8fDg9j-31" value="" style="endArrow=classic;html=1;rounded=0;" edge="1" parent="1">
          <mxGeometry width="50" height="50" relative="1" as="geometry">
            <mxPoint x="530" y="320" as="sourcePoint" />
            <mxPoint x="290" y="410" as="targetPoint" />
            <Array as="points">
              <mxPoint x="530" y="350" />
              <mxPoint x="380" y="350" />
              <mxPoint x="380" y="410" />
            </Array>
          </mxGeometry>
        </mxCell>
        <mxCell id="iZoaPTnGYf3c4O8fDg9j-32" value="" style="endArrow=classic;html=1;rounded=0;" edge="1" parent="1">
          <mxGeometry width="50" height="50" relative="1" as="geometry">
            <mxPoint x="670" y="320" as="sourcePoint" />
            <mxPoint x="671" y="460" as="targetPoint" />
          </mxGeometry>
        </mxCell>
        <mxCell id="iZoaPTnGYf3c4O8fDg9j-33" value="" style="endArrow=none;html=1;rounded=0;" edge="1" parent="1">
          <mxGeometry width="50" height="50" relative="1" as="geometry">
            <mxPoint x="840" y="550" as="sourcePoint" />
            <mxPoint x="1040" y="550" as="targetPoint" />
          </mxGeometry>
        </mxCell>
        <mxCell id="iZoaPTnGYf3c4O8fDg9j-34" value="" style="endArrow=classic;html=1;rounded=0;" edge="1" parent="1">
          <mxGeometry width="50" height="50" relative="1" as="geometry">
            <mxPoint x="710" y="590" as="sourcePoint" />
            <mxPoint x="711" y="630" as="targetPoint" />
          </mxGeometry>
        </mxCell>
        <mxCell id="iZoaPTnGYf3c4O8fDg9j-35" value="" style="endArrow=classic;html=1;rounded=0;" edge="1" parent="1">
          <mxGeometry width="50" height="50" relative="1" as="geometry">
            <mxPoint x="870" y="590" as="sourcePoint" />
            <mxPoint x="810" y="640" as="targetPoint" />
            <Array as="points">
              <mxPoint x="870" y="610" />
              <mxPoint x="810" y="610" />
            </Array>
          </mxGeometry>
        </mxCell>
        <mxCell id="iZoaPTnGYf3c4O8fDg9j-36" value="" style="endArrow=classic;html=1;rounded=0;" edge="1" parent="1">
          <mxGeometry width="50" height="50" relative="1" as="geometry">
            <mxPoint x="950" y="720" as="sourcePoint" />
            <mxPoint x="890" y="720" as="targetPoint" />
          </mxGeometry>
        </mxCell>
        <mxCell id="iZoaPTnGYf3c4O8fDg9j-37" value="" style="endArrow=classic;html=1;rounded=0;exitX=0.05;exitY=1;exitDx=0;exitDy=0;exitPerimeter=0;" edge="1" parent="1" source="iZoaPTnGYf3c4O8fDg9j-8">
          <mxGeometry width="50" height="50" relative="1" as="geometry">
            <mxPoint x="810" y="380" as="sourcePoint" />
            <mxPoint x="750" y="460" as="targetPoint" />
            <Array as="points">
              <mxPoint x="810" y="420" />
              <mxPoint x="750" y="420" />
            </Array>
          </mxGeometry>
        </mxCell>
        <mxCell id="iZoaPTnGYf3c4O8fDg9j-38" value="" style="endArrow=classic;html=1;rounded=0;" edge="1" parent="1">
          <mxGeometry width="50" height="50" relative="1" as="geometry">
            <mxPoint x="660" y="640" as="sourcePoint" />
            <mxPoint x="600" y="610" as="targetPoint" />
            <Array as="points">
              <mxPoint x="660" y="610" />
              <mxPoint x="600" y="610" />
            </Array>
          </mxGeometry>
        </mxCell>
        <mxCell id="iZoaPTnGYf3c4O8fDg9j-39" value="" style="endArrow=classic;html=1;rounded=0;exitX=0.05;exitY=1;exitDx=0;exitDy=0;exitPerimeter=0;" edge="1" parent="1">
          <mxGeometry width="50" height="50" relative="1" as="geometry">
            <mxPoint x="840" y="370" as="sourcePoint" />
            <mxPoint x="490" y="460" as="targetPoint" />
            <Array as="points">
              <mxPoint x="840" y="420" />
              <mxPoint x="490" y="420" />
            </Array>
          </mxGeometry>
        </mxCell>
        <mxCell id="iZoaPTnGYf3c4O8fDg9j-40" value="" style="endArrow=classic;html=1;rounded=0;" edge="1" parent="1">
          <mxGeometry width="50" height="50" relative="1" as="geometry">
            <mxPoint x="570" y="320" as="sourcePoint" />
            <mxPoint x="570" y="450" as="targetPoint" />
          </mxGeometry>
        </mxCell>
        <mxCell id="iZoaPTnGYf3c4O8fDg9j-41" value="&lt;font color=&quot;#0000ff&quot; style=&quot;font-size: 28px;&quot;&gt;SERVER&lt;/font&gt;" style="rounded=1;whiteSpace=wrap;html=1;" vertex="1" parent="1">
          <mxGeometry x="730" y="990" width="160" height="70" as="geometry" />
        </mxCell>
        <mxCell id="iZoaPTnGYf3c4O8fDg9j-42" value="&lt;div style=&quot;&quot;&gt;&lt;span style=&quot;font-size: 15px; color: rgb(255, 153, 51); background-color: initial;&quot;&gt;Casella:&lt;/span&gt;&lt;/div&gt;&lt;font style=&quot;&quot;&gt;&lt;div style=&quot;&quot;&gt;&lt;span style=&quot;font-size: 15px;&quot;&gt;&lt;br&gt;&lt;/span&gt;&lt;/div&gt;&lt;span style=&quot;font-size: 15px;&quot;&gt;&lt;div style=&quot;&quot;&gt;&lt;span style=&quot;background-color: initial;&quot;&gt;+ lettera: char&lt;/span&gt;&lt;/div&gt;&lt;/span&gt;&lt;span style=&quot;font-size: 15px;&quot;&gt;&lt;div style=&quot;&quot;&gt;&lt;span style=&quot;background-color: initial;&quot;&gt;+ valore: int&lt;/span&gt;&lt;/div&gt;&lt;div style=&quot;&quot;&gt;&lt;div style=&quot;border-color: var(--border-color);&quot;&gt;+ x: int&lt;/div&gt;&lt;div style=&quot;border-color: var(--border-color);&quot;&gt;&lt;div style=&quot;border-color: var(--border-color);&quot;&gt;+ y: int&lt;/div&gt;&lt;div&gt;&lt;span style=&quot;border-color: var(--border-color); background-color: initial;&quot;&gt;+ moltiplicatore: String&lt;/span&gt;&lt;/div&gt;&lt;/div&gt;&lt;/div&gt;&lt;div style=&quot;&quot;&gt;&lt;br&gt;&lt;/div&gt;&lt;/span&gt;&lt;span style=&quot;font-size: 15px;&quot;&gt;&lt;div style=&quot;&quot;&gt;&lt;span style=&quot;background-color: initial;&quot;&gt;+ Casella()&lt;/span&gt;&lt;/div&gt;&lt;/span&gt;&lt;span style=&quot;font-size: 15px;&quot;&gt;&lt;div style=&quot;&quot;&gt;&lt;span style=&quot;background-color: initial;&quot;&gt;+ calcolaLettera()&lt;/span&gt;&lt;/div&gt;&lt;/span&gt;&lt;/font&gt;" style="rounded=0;whiteSpace=wrap;html=1;align=left;" vertex="1" parent="1">
          <mxGeometry x="710" y="1090" width="240" height="210" as="geometry" />
        </mxCell>
        <mxCell id="iZoaPTnGYf3c4O8fDg9j-43" value="" style="endArrow=none;html=1;rounded=0;" edge="1" parent="1">
          <mxGeometry width="50" height="50" relative="1" as="geometry">
            <mxPoint x="710" y="1238" as="sourcePoint" />
            <mxPoint x="950" y="1238" as="targetPoint" />
          </mxGeometry>
        </mxCell>
        <mxCell id="iZoaPTnGYf3c4O8fDg9j-44" value="&lt;div style=&quot;&quot;&gt;&lt;span style=&quot;font-size: 15px; color: rgb(255, 153, 51); background-color: initial;&quot;&gt;GestioneGiocatori:&lt;/span&gt;&lt;/div&gt;&lt;font style=&quot;&quot;&gt;&lt;div style=&quot;&quot;&gt;&lt;span style=&quot;font-size: 15px;&quot;&gt;&lt;br&gt;&lt;/span&gt;&lt;/div&gt;&lt;span style=&quot;font-size: 15px;&quot;&gt;&lt;div style=&quot;&quot;&gt;&lt;span style=&quot;background-color: initial;&quot;&gt;+ vettore: List&amp;lt;Giocatore&amp;gt;&lt;/span&gt;&lt;/div&gt;&lt;/span&gt;&lt;span style=&quot;font-size: 15px;&quot;&gt;&lt;div style=&quot;&quot;&gt;&lt;br&gt;&lt;/div&gt;&lt;/span&gt;&lt;span style=&quot;font-size: 15px;&quot;&gt;&lt;div style=&quot;&quot;&gt;&lt;span style=&quot;background-color: initial;&quot;&gt;+ GestioneGiocatori()&lt;/span&gt;&lt;/div&gt;&lt;/span&gt;&lt;span style=&quot;font-size: 15px;&quot;&gt;&lt;div style=&quot;&quot;&gt;&lt;span style=&quot;background-color: initial;&quot;&gt;+ aggiungiGiocatore()&lt;/span&gt;&lt;/div&gt;&lt;div style=&quot;&quot;&gt;&lt;span style=&quot;background-color: initial;&quot;&gt;+ cercaGiocatore()&lt;/span&gt;&lt;/div&gt;&lt;div style=&quot;&quot;&gt;&lt;span style=&quot;background-color: initial;&quot;&gt;+ nomeGiocatore()&lt;/span&gt;&lt;/div&gt;&lt;/span&gt;&lt;/font&gt;" style="rounded=0;whiteSpace=wrap;html=1;align=left;" vertex="1" parent="1">
          <mxGeometry x="390" y="1370" width="240" height="170" as="geometry" />
        </mxCell>
        <mxCell id="iZoaPTnGYf3c4O8fDg9j-45" value="" style="endArrow=none;html=1;rounded=0;" edge="1" parent="1">
          <mxGeometry width="50" height="50" relative="1" as="geometry">
            <mxPoint x="390" y="1437" as="sourcePoint" />
            <mxPoint x="630" y="1437" as="targetPoint" />
          </mxGeometry>
        </mxCell>
        <mxCell id="iZoaPTnGYf3c4O8fDg9j-46" value="&lt;div style=&quot;&quot;&gt;&lt;span style=&quot;font-size: 15px; color: rgb(255, 153, 51); background-color: initial;&quot;&gt;Giocatore:&lt;/span&gt;&lt;/div&gt;&lt;font style=&quot;&quot;&gt;&lt;div style=&quot;&quot;&gt;&lt;span style=&quot;font-size: 15px;&quot;&gt;&lt;br&gt;&lt;/span&gt;&lt;/div&gt;&lt;span style=&quot;font-size: 15px;&quot;&gt;&lt;div style=&quot;&quot;&gt;&lt;span style=&quot;background-color: initial;&quot;&gt;+ nome: String&lt;/span&gt;&lt;/div&gt;&lt;/span&gt;&lt;span style=&quot;font-size: 15px;&quot;&gt;&lt;div style=&quot;&quot;&gt;&lt;span style=&quot;background-color: initial;&quot;&gt;+ id: int&lt;/span&gt;&lt;/div&gt;&lt;div style=&quot;&quot;&gt;&lt;div style=&quot;border-color: var(--border-color);&quot;&gt;+ lettereDisponibili: char[]&lt;/div&gt;&lt;div style=&quot;border-color: var(--border-color);&quot;&gt;&lt;div style=&quot;border-color: var(--border-color);&quot;&gt;+ punteggio: int&lt;/div&gt;&lt;div&gt;&lt;span style=&quot;border-color: var(--border-color); background-color: initial;&quot;&gt;+ primaGiocata: boolean&lt;/span&gt;&lt;/div&gt;&lt;/div&gt;&lt;/div&gt;&lt;div style=&quot;&quot;&gt;&lt;br&gt;&lt;/div&gt;&lt;/span&gt;&lt;span style=&quot;font-size: 15px;&quot;&gt;&lt;div style=&quot;&quot;&gt;&lt;span style=&quot;background-color: initial;&quot;&gt;+ Giocatore()&lt;/span&gt;&lt;/div&gt;&lt;/span&gt;&lt;span style=&quot;font-size: 15px;&quot;&gt;&lt;div style=&quot;&quot;&gt;&lt;span style=&quot;background-color: initial;&quot;&gt;+ randomConsonante()&lt;/span&gt;&lt;/div&gt;&lt;div style=&quot;&quot;&gt;+ randomVocale()&lt;span style=&quot;background-color: initial;&quot;&gt;&lt;br&gt;&lt;/span&gt;&lt;/div&gt;&lt;div style=&quot;&quot;&gt;+ assegnaLettere()&lt;/div&gt;&lt;div style=&quot;&quot;&gt;+ valoreLettere&lt;/div&gt;&lt;div style=&quot;&quot;&gt;+ RimuoviLettereusate()&lt;/div&gt;&lt;/span&gt;&lt;/font&gt;" style="rounded=0;whiteSpace=wrap;html=1;align=left;" vertex="1" parent="1">
          <mxGeometry x="390" y="1050" width="240" height="270" as="geometry" />
        </mxCell>
        <mxCell id="iZoaPTnGYf3c4O8fDg9j-47" value="" style="endArrow=none;html=1;rounded=0;" edge="1" parent="1">
          <mxGeometry width="50" height="50" relative="1" as="geometry">
            <mxPoint x="390" y="1194" as="sourcePoint" />
            <mxPoint x="630" y="1194" as="targetPoint" />
          </mxGeometry>
        </mxCell>
        <mxCell id="iZoaPTnGYf3c4O8fDg9j-48" value="&lt;div style=&quot;&quot;&gt;&lt;span style=&quot;font-size: 15px; color: rgb(255, 153, 51); background-color: initial;&quot;&gt;Lettera:&lt;/span&gt;&lt;/div&gt;&lt;font style=&quot;&quot;&gt;&lt;div style=&quot;&quot;&gt;&lt;span style=&quot;font-size: 15px;&quot;&gt;&lt;br&gt;&lt;/span&gt;&lt;/div&gt;&lt;span style=&quot;font-size: 15px;&quot;&gt;&lt;div style=&quot;&quot;&gt;&lt;span style=&quot;background-color: initial;&quot;&gt;+ contenuto: char&lt;/span&gt;&lt;/div&gt;&lt;/span&gt;&lt;span style=&quot;font-size: 15px;&quot;&gt;&lt;div style=&quot;&quot;&gt;&lt;span style=&quot;background-color: initial;&quot;&gt;+ x: int&lt;/span&gt;&lt;/div&gt;&lt;div style=&quot;&quot;&gt;&lt;div style=&quot;border-color: var(--border-color);&quot;&gt;+ y: int&lt;/div&gt;&lt;div style=&quot;border-color: var(--border-color);&quot;&gt;&lt;div style=&quot;border-color: var(--border-color);&quot;&gt;&lt;br&gt;&lt;/div&gt;&lt;/div&gt;&lt;/div&gt;&lt;/span&gt;&lt;span style=&quot;font-size: 15px;&quot;&gt;&lt;div style=&quot;&quot;&gt;&lt;span style=&quot;background-color: initial;&quot;&gt;+ Lettera()&lt;/span&gt;&lt;/div&gt;&lt;/span&gt;&lt;/font&gt;" style="rounded=0;whiteSpace=wrap;html=1;align=left;" vertex="1" parent="1">
          <mxGeometry x="1070" y="1030" width="240" height="160" as="geometry" />
        </mxCell>
        <mxCell id="iZoaPTnGYf3c4O8fDg9j-49" value="" style="endArrow=none;html=1;rounded=0;" edge="1" parent="1">
          <mxGeometry width="50" height="50" relative="1" as="geometry">
            <mxPoint x="1070" y="1150" as="sourcePoint" />
            <mxPoint x="1310" y="1150" as="targetPoint" />
          </mxGeometry>
        </mxCell>
        <mxCell id="iZoaPTnGYf3c4O8fDg9j-50" value="&lt;div style=&quot;&quot;&gt;&lt;span style=&quot;font-size: 15px; color: rgb(255, 153, 51); background-color: initial;&quot;&gt;Parola:&lt;/span&gt;&lt;/div&gt;&lt;font style=&quot;&quot;&gt;&lt;div style=&quot;&quot;&gt;&lt;span style=&quot;font-size: 15px;&quot;&gt;&lt;br&gt;&lt;/span&gt;&lt;/div&gt;&lt;span style=&quot;font-size: 15px;&quot;&gt;&lt;div style=&quot;&quot;&gt;&lt;span style=&quot;background-color: initial;&quot;&gt;+ lunghezza: int&lt;/span&gt;&lt;/div&gt;&lt;/span&gt;&lt;span style=&quot;font-size: 15px;&quot;&gt;&lt;div style=&quot;&quot;&gt;&lt;span style=&quot;background-color: initial;&quot;&gt;+ vettore: List&amp;lt;Lettera&amp;gt;&lt;/span&gt;&lt;/div&gt;&lt;div style=&quot;&quot;&gt;&lt;br&gt;&lt;/div&gt;&lt;/span&gt;&lt;span style=&quot;font-size: 15px;&quot;&gt;&lt;div style=&quot;&quot;&gt;&lt;span style=&quot;background-color: initial;&quot;&gt;+ Parola()&lt;/span&gt;&lt;/div&gt;&lt;/span&gt;&lt;span style=&quot;font-size: 15px;&quot;&gt;&lt;div style=&quot;&quot;&gt;&lt;span style=&quot;background-color: initial;&quot;&gt;+ checkDirezione()&lt;/span&gt;&lt;/div&gt;&lt;/span&gt;&lt;/font&gt;" style="rounded=0;whiteSpace=wrap;html=1;align=left;" vertex="1" parent="1">
          <mxGeometry x="1070" y="1240" width="240" height="160" as="geometry" />
        </mxCell>
        <mxCell id="iZoaPTnGYf3c4O8fDg9j-51" value="" style="endArrow=none;html=1;rounded=0;" edge="1" parent="1">
          <mxGeometry width="50" height="50" relative="1" as="geometry">
            <mxPoint x="1070" y="1340" as="sourcePoint" />
            <mxPoint x="1310" y="1340" as="targetPoint" />
          </mxGeometry>
        </mxCell>
        <mxCell id="iZoaPTnGYf3c4O8fDg9j-52" value="&lt;div style=&quot;&quot;&gt;&lt;span style=&quot;font-size: 15px; color: rgb(255, 153, 51); background-color: initial;&quot;&gt;server:&lt;/span&gt;&lt;/div&gt;&lt;font style=&quot;&quot;&gt;&lt;div style=&quot;&quot;&gt;&lt;span style=&quot;font-size: 15px;&quot;&gt;&lt;br&gt;&lt;/span&gt;&lt;/div&gt;&lt;span style=&quot;font-size: 15px;&quot;&gt;&lt;div style=&quot;&quot;&gt;&lt;span style=&quot;background-color: initial;&quot;&gt;+ serverSocket: ServerSocket&lt;/span&gt;&lt;/div&gt;&lt;/span&gt;&lt;span style=&quot;font-size: 15px;&quot;&gt;&lt;div style=&quot;&quot;&gt;&lt;span style=&quot;background-color: initial;&quot;&gt;+ clientSocket: Socket&lt;/span&gt;&lt;/div&gt;&lt;div style=&quot;&quot;&gt;&lt;div style=&quot;border-color: var(--border-color);&quot;&gt;+ lettereDisponibili: char[]&lt;/div&gt;&lt;div style=&quot;border-color: var(--border-color);&quot;&gt;&lt;div style=&quot;border-color: var(--border-color);&quot;&gt;+ out: PrintWriter&lt;/div&gt;&lt;div&gt;&lt;span style=&quot;border-color: var(--border-color); background-color: initial;&quot;&gt;+ in: BufferedReader&lt;/span&gt;&lt;/div&gt;&lt;/div&gt;&lt;/div&gt;&lt;div style=&quot;&quot;&gt;&lt;br&gt;&lt;/div&gt;&lt;/span&gt;&lt;span style=&quot;font-size: 15px;&quot;&gt;&lt;div style=&quot;&quot;&gt;&lt;span style=&quot;background-color: initial;&quot;&gt;+ stop()&lt;/span&gt;&lt;/div&gt;&lt;/span&gt;&lt;span style=&quot;font-size: 15px;&quot;&gt;&lt;div style=&quot;&quot;&gt;&lt;span style=&quot;background-color: initial;&quot;&gt;+ ricevi()&lt;/span&gt;&lt;/div&gt;&lt;div style=&quot;&quot;&gt;+ inviaMessaggio()&lt;/div&gt;&lt;/span&gt;&lt;/font&gt;" style="rounded=0;whiteSpace=wrap;html=1;align=left;" vertex="1" parent="1">
          <mxGeometry x="60" y="1050" width="240" height="230" as="geometry" />
        </mxCell>
        <mxCell id="iZoaPTnGYf3c4O8fDg9j-53" value="" style="endArrow=none;html=1;rounded=0;" edge="1" parent="1">
          <mxGeometry width="50" height="50" relative="1" as="geometry">
            <mxPoint x="60" y="1201" as="sourcePoint" />
            <mxPoint x="300" y="1201" as="targetPoint" />
          </mxGeometry>
        </mxCell>
        <mxCell id="iZoaPTnGYf3c4O8fDg9j-54" value="&lt;div style=&quot;&quot;&gt;&lt;span style=&quot;font-size: 15px; color: rgb(255, 153, 51); background-color: initial;&quot;&gt;Tabella:&lt;/span&gt;&lt;/div&gt;&lt;font style=&quot;&quot;&gt;&lt;div style=&quot;&quot;&gt;&lt;span style=&quot;font-size: 15px;&quot;&gt;&lt;br&gt;&lt;/span&gt;&lt;/div&gt;&lt;span style=&quot;font-size: 15px;&quot;&gt;&lt;div style=&quot;&quot;&gt;&lt;span style=&quot;background-color: initial;&quot;&gt;+ NUM_CASELLE: int&lt;/span&gt;&lt;/div&gt;&lt;/span&gt;&lt;span style=&quot;font-size: 15px;&quot;&gt;&lt;div style=&quot;&quot;&gt;&lt;span style=&quot;background-color: initial;&quot;&gt;+ CASELLA_CENTRALE: int&lt;/span&gt;&lt;/div&gt;&lt;div style=&quot;&quot;&gt;&lt;div style=&quot;border-color: var(--border-color);&quot;&gt;+ lettereDisponibili: char[]&lt;/div&gt;&lt;div style=&quot;border-color: var(--border-color);&quot;&gt;&lt;div style=&quot;border-color: var(--border-color);&quot;&gt;+ tabella: Casella[][]&lt;/div&gt;&lt;/div&gt;&lt;/div&gt;&lt;div style=&quot;&quot;&gt;&lt;br&gt;&lt;/div&gt;&lt;/span&gt;&lt;span style=&quot;font-size: 15px;&quot;&gt;&lt;div style=&quot;&quot;&gt;&lt;span style=&quot;background-color: initial;&quot;&gt;+ Tabella()&lt;/span&gt;&lt;/div&gt;&lt;/span&gt;&lt;span style=&quot;font-size: 15px;&quot;&gt;&lt;div style=&quot;&quot;&gt;&lt;span style=&quot;background-color: initial;&quot;&gt;+ controlloMaster()&lt;/span&gt;&lt;/div&gt;&lt;div style=&quot;&quot;&gt;+ controlloMasterPP()&lt;span style=&quot;background-color: initial;&quot;&gt;&lt;br&gt;&lt;/span&gt;&lt;/div&gt;&lt;div style=&quot;&quot;&gt;+ controlloLinearita()&lt;/div&gt;&lt;div style=&quot;&quot;&gt;+ controllaCasellaCentrale()&lt;/div&gt;&lt;div style=&quot;&quot;&gt;+ controlloCasellePiene()&lt;/div&gt;&lt;div style=&quot;&quot;&gt;+ checkDizionario()&lt;/div&gt;&lt;div style=&quot;&quot;&gt;+ aggiungiParola()&lt;/div&gt;&lt;div style=&quot;&quot;&gt;+ assegnaMoltiplicatori()&lt;/div&gt;&lt;div style=&quot;&quot;&gt;+ contaMoltiplicatoriParola()&lt;/div&gt;&lt;div style=&quot;&quot;&gt;+ tabellaInStringa()&lt;/div&gt;&lt;/span&gt;&lt;/font&gt;" style="rounded=0;whiteSpace=wrap;html=1;align=left;" vertex="1" parent="1">
          <mxGeometry x="710" y="1350" width="240" height="360" as="geometry" />
        </mxCell>
        <mxCell id="iZoaPTnGYf3c4O8fDg9j-55" value="" style="endArrow=none;html=1;rounded=0;" edge="1" parent="1">
          <mxGeometry width="50" height="50" relative="1" as="geometry">
            <mxPoint x="710" y="1484" as="sourcePoint" />
            <mxPoint x="950" y="1484" as="targetPoint" />
          </mxGeometry>
        </mxCell>
        <mxCell id="iZoaPTnGYf3c4O8fDg9j-56" value="" style="endArrow=classic;html=1;rounded=0;" edge="1" parent="1">
          <mxGeometry width="50" height="50" relative="1" as="geometry">
            <mxPoint x="430" y="1320" as="sourcePoint" />
            <mxPoint x="430" y="1360" as="targetPoint" />
          </mxGeometry>
        </mxCell>
        <mxCell id="iZoaPTnGYf3c4O8fDg9j-57" value="" style="endArrow=classic;html=1;rounded=0;" edge="1" parent="1">
          <mxGeometry width="50" height="50" relative="1" as="geometry">
            <mxPoint x="770" y="1300" as="sourcePoint" />
            <mxPoint x="770" y="1340" as="targetPoint" />
          </mxGeometry>
        </mxCell>
        <mxCell id="iZoaPTnGYf3c4O8fDg9j-58" value="" style="endArrow=classic;html=1;rounded=0;" edge="1" parent="1">
          <mxGeometry width="50" height="50" relative="1" as="geometry">
            <mxPoint x="1110" y="1190" as="sourcePoint" />
            <mxPoint x="1110" y="1230" as="targetPoint" />
          </mxGeometry>
        </mxCell>
      </root>
    </mxGraphModel>
  </diagram>
</mxfile>
